{"title":"Tiny Furniture 2010 LIMITED BRRip XviD Ac3 Feel-Free","uid":7005774,"size":877232533,"categoryP":"video","categoryS":"movies","magnet":"?xt=urn:btih:d2c68b267d1268531ffe64d4602b00c98f05532f&amp;dn=Tiny+Furniture+2010+LIMITED+BRRip+XviD+Ac3+Feel-Free&amp;tr=udp%3A%2F%2Ftracker.openbittorrent.com%3A80&amp;tr=udp%3A%2F%2Fopen.demonii.com%3A1337&amp;tr=udp%3A%2F%2Ftracker.coppersurfer.tk%3A6969&amp;tr=udp%3A%2F%2Fexodus.desync.com%3A6969","seeders":0,"leechers":1,"uploader":"MScope40","files":-1,"time":1328261270,"description":"Genre:Comedy\nLanguage:English\nIMDb:http://www.imdb.com/title/tt1570989/\nSource:1080p.BluRay.X264-AMIABLE Thanks!\nEncoder:Tony\n\nFormat : AVI\nFormat/Info : Audio Video Interleave\nFile size : 836 MiB\nDuration : 1h 39mn\nOverall bit rate : 1 174 Kbps\n\nVideo\nID : 0\nFormat : MPEG-4 Visual\nFormat profile : Advanced Simple@L5\nFormat settings, BVOP : 1\nFormat settings, QPel : No\nFormat settings, GMC : No warppoints\nFormat settings, Matrix : Default (H.263)\nCodec ID : XVID\nCodec ID/Hint : XviD\nDuration : 1h 39mn\nBit rate : 717 Kbps\nWidth : 640 pixels\nHeight : 264 pixels\nDisplay aspect ratio : 2.40:1\nFrame rate : 23.976 fps\nColor space : YUV\nChroma subsampling : 4:2:0\nBit depth : 8 bits\nScan type : Progressive\nCompression mode : Lossy\nBits/(Pixel*Frame) : 0.177\nStream size : 510 MiB (61%)\nWriting library : XviD 1.2.1 (UTC 2008-12-04)\n\nAudio\nID : 1\nFormat : AC-3\nFormat/Info : Audio Coding 3\nMode extension : CM (complete main)\nCodec ID : 2000\nDuration : 1h 39mn\nBit rate mode : Constant\nBit rate : 448 Kbps\nChannel(s) : 6 channels\nChannel positions : Front: L C R, Side: L R, LFE\nSampling rate : 48.0 KHz\nBit depth : 16 bits\nCompression mode : Lossy\nStream size : 319 MiB (38%)\nAlignment : Aligned on interleaves\nInterleave, duration : 42 ms (1.00 video frame)\nInterleave, preload duration : 512 ms\n\n\nPlot:\nAbout a recent college grad who returns home while she tries to figure out what to do with her life\n\nScreen Shots\n\n\n[img]http://img196.imageshack.us/img196/1002/vlcsnap2012020310h13m41.png[/img]\n\n\n[img]http://img209.imageshack.us/img209/6784/vlcsnap2012020310h14m30.png[/img]\n\n\n[img]http://img818.imageshack.us/img818/2420/vlcsnap2012020310h13m30.png[/img]","torrent":{"xt":"urn:btih:d2c68b267d1268531ffe64d4602b00c98f05532f","amp;dn":"Tiny+Furniture+2010+LIMITED+BRRip+XviD+Ac3+Feel-Free","amp;tr":["udp%3A%2F%2Ftracker.openbittorrent.com%3A80","udp%3A%2F%2Fopen.demonii.com%3A1337","udp%3A%2F%2Ftracker.coppersurfer.tk%3A6969","udp%3A%2F%2Fexodus.desync.com%3A6969"],"infoHash":"d2c68b267d1268531ffe64d4602b00c98f05532f","infoHashBuffer":{"type":"Buffer","data":[210,198,139,38,125,18,104,83,31,254,100,212,96,43,0,201,143,5,83,47]},"announce":[],"urlList":[]}}